<mxfile host="app.diagrams.net" agent="Mozilla/5.0 (Windows NT 10.0; Win64; x64; rv:137.0) Gecko/20100101 Firefox/137.0" version="26.2.15">
  <diagram name="第 1 页" id="-pRMrxnwegoPKFar7Ro3">
    <mxGraphModel dx="1097" dy="584" grid="1" gridSize="10" guides="1" tooltips="1" connect="1" arrows="1" fold="1" page="1" pageScale="1" pageWidth="827" pageHeight="1169" math="0" shadow="0">
      <root>
        <mxCell id="0" />
        <mxCell id="1" parent="0" />
        <mxCell id="6qK6w1fUxaMm84eF96_b-1" value="用户设备" style="verticalLabelPosition=bottom;sketch=0;aspect=fixed;html=1;verticalAlign=top;strokeColor=none;align=center;outlineConnect=0;shape=mxgraph.citrix.desktop;" parent="1" vertex="1">
          <mxGeometry x="70" y="160" width="89" height="98" as="geometry" />
        </mxCell>
        <mxCell id="6qK6w1fUxaMm84eF96_b-2" value="用户设备" style="verticalLabelPosition=bottom;sketch=0;aspect=fixed;html=1;verticalAlign=top;strokeColor=none;align=center;outlineConnect=0;shape=mxgraph.citrix.laptop_1;" parent="1" vertex="1">
          <mxGeometry x="50" y="370" width="91" height="77" as="geometry" />
        </mxCell>
        <mxCell id="6qK6w1fUxaMm84eF96_b-3" value="网关" style="verticalLabelPosition=bottom;sketch=0;aspect=fixed;html=1;verticalAlign=top;strokeColor=none;align=center;outlineConnect=0;shape=mxgraph.citrix.proxy_server;" parent="1" vertex="1">
          <mxGeometry x="440" y="260" width="76.5" height="90" as="geometry" />
        </mxCell>
        <mxCell id="6qK6w1fUxaMm84eF96_b-4" value="&lt;div&gt;API服务器&lt;/div&gt;&lt;div&gt;(系统服务端）&lt;/div&gt;" style="verticalLabelPosition=bottom;sketch=0;aspect=fixed;html=1;verticalAlign=top;strokeColor=none;align=center;outlineConnect=0;shape=mxgraph.citrix.tower_server;" parent="1" vertex="1">
          <mxGeometry x="654.25" y="110" width="65" height="85" as="geometry" />
        </mxCell>
        <mxCell id="6qK6w1fUxaMm84eF96_b-6" value="MySQL数据库" style="verticalLabelPosition=bottom;sketch=0;aspect=fixed;html=1;verticalAlign=top;strokeColor=none;align=center;outlineConnect=0;shape=mxgraph.citrix.database_server;" parent="1" vertex="1">
          <mxGeometry x="870" y="107.5" width="80" height="90" as="geometry" />
        </mxCell>
        <mxCell id="6qK6w1fUxaMm84eF96_b-7" value="文件柜控制模块" style="verticalLabelPosition=bottom;sketch=0;aspect=fixed;html=1;verticalAlign=top;strokeColor=none;align=center;outlineConnect=0;shape=mxgraph.citrix.tower_server;" parent="1" vertex="1">
          <mxGeometry x="654.25" y="400" width="65" height="85" as="geometry" />
        </mxCell>
        <mxCell id="6qK6w1fUxaMm84eF96_b-9" value="" style="endArrow=none;html=1;rounded=0;" parent="1" source="6qK6w1fUxaMm84eF96_b-1" target="wMVqPyCpb7T7B9sVLrzH-5" edge="1">
          <mxGeometry width="50" height="50" relative="1" as="geometry">
            <mxPoint x="610" y="290" as="sourcePoint" />
            <mxPoint x="660" y="240" as="targetPoint" />
          </mxGeometry>
        </mxCell>
        <mxCell id="6qK6w1fUxaMm84eF96_b-10" value="" style="endArrow=none;html=1;rounded=0;" parent="1" source="6qK6w1fUxaMm84eF96_b-2" target="wMVqPyCpb7T7B9sVLrzH-5" edge="1">
          <mxGeometry width="50" height="50" relative="1" as="geometry">
            <mxPoint x="610" y="290" as="sourcePoint" />
            <mxPoint x="660" y="240" as="targetPoint" />
          </mxGeometry>
        </mxCell>
        <mxCell id="6qK6w1fUxaMm84eF96_b-11" value="" style="endArrow=none;html=1;rounded=0;" parent="1" source="wMVqPyCpb7T7B9sVLrzH-13" target="6qK6w1fUxaMm84eF96_b-3" edge="1">
          <mxGeometry width="50" height="50" relative="1" as="geometry">
            <mxPoint x="654.25" y="305" as="sourcePoint" />
            <mxPoint x="660" y="240" as="targetPoint" />
          </mxGeometry>
        </mxCell>
        <mxCell id="6qK6w1fUxaMm84eF96_b-12" value="" style="endArrow=none;html=1;rounded=0;" parent="1" source="6qK6w1fUxaMm84eF96_b-3" target="6qK6w1fUxaMm84eF96_b-4" edge="1">
          <mxGeometry width="50" height="50" relative="1" as="geometry">
            <mxPoint x="610" y="290" as="sourcePoint" />
            <mxPoint x="660" y="240" as="targetPoint" />
          </mxGeometry>
        </mxCell>
        <mxCell id="6qK6w1fUxaMm84eF96_b-13" value="" style="endArrow=none;html=1;rounded=0;" parent="1" source="6qK6w1fUxaMm84eF96_b-3" target="6qK6w1fUxaMm84eF96_b-7" edge="1">
          <mxGeometry width="50" height="50" relative="1" as="geometry">
            <mxPoint x="610" y="290" as="sourcePoint" />
            <mxPoint x="660" y="240" as="targetPoint" />
          </mxGeometry>
        </mxCell>
        <mxCell id="6qK6w1fUxaMm84eF96_b-14" value="" style="endArrow=none;html=1;rounded=0;" parent="1" source="6qK6w1fUxaMm84eF96_b-6" target="6qK6w1fUxaMm84eF96_b-4" edge="1">
          <mxGeometry width="50" height="50" relative="1" as="geometry">
            <mxPoint x="610" y="290" as="sourcePoint" />
            <mxPoint x="660" y="240" as="targetPoint" />
          </mxGeometry>
        </mxCell>
        <mxCell id="6qK6w1fUxaMm84eF96_b-16" value="文件柜服务" style="verticalLabelPosition=bottom;sketch=0;aspect=fixed;html=1;verticalAlign=top;strokeColor=none;align=center;outlineConnect=0;shape=mxgraph.citrix.tower_server;" parent="1" vertex="1">
          <mxGeometry x="827" y="400" width="65" height="85" as="geometry" />
        </mxCell>
        <mxCell id="6qK6w1fUxaMm84eF96_b-17" value="" style="endArrow=none;html=1;rounded=0;" parent="1" source="6qK6w1fUxaMm84eF96_b-16" target="6qK6w1fUxaMm84eF96_b-7" edge="1">
          <mxGeometry width="50" height="50" relative="1" as="geometry">
            <mxPoint x="610" y="290" as="sourcePoint" />
            <mxPoint x="660" y="240" as="targetPoint" />
          </mxGeometry>
        </mxCell>
        <mxCell id="6qK6w1fUxaMm84eF96_b-18" value="" style="endArrow=none;html=1;rounded=0;" parent="1" source="6qK6w1fUxaMm84eF96_b-3" target="wMVqPyCpb7T7B9sVLrzH-5" edge="1">
          <mxGeometry width="50" height="50" relative="1" as="geometry">
            <mxPoint x="610" y="290" as="sourcePoint" />
            <mxPoint x="660" y="240" as="targetPoint" />
          </mxGeometry>
        </mxCell>
        <mxCell id="wMVqPyCpb7T7B9sVLrzH-4" value="文件柜-副柜1" style="verticalLabelPosition=bottom;sketch=0;aspect=fixed;html=1;verticalAlign=top;strokeColor=none;align=center;outlineConnect=0;shape=mxgraph.citrix.hq_enterprise;" vertex="1" parent="1">
          <mxGeometry x="990" y="400" width="73.18" height="70" as="geometry" />
        </mxCell>
        <mxCell id="wMVqPyCpb7T7B9sVLrzH-5" value="互联网" style="verticalLabelPosition=bottom;sketch=0;aspect=fixed;html=1;verticalAlign=top;strokeColor=none;align=center;outlineConnect=0;shape=mxgraph.citrix.globe;" vertex="1" parent="1">
          <mxGeometry x="250" y="267.5" width="78.5" height="75" as="geometry" />
        </mxCell>
        <mxCell id="wMVqPyCpb7T7B9sVLrzH-6" value="文件柜-主柜" style="verticalLabelPosition=bottom;sketch=0;aspect=fixed;html=1;verticalAlign=top;strokeColor=none;align=center;outlineConnect=0;shape=mxgraph.citrix.hq_enterprise;" vertex="1" parent="1">
          <mxGeometry x="990" y="290" width="73.18" height="70" as="geometry" />
        </mxCell>
        <mxCell id="wMVqPyCpb7T7B9sVLrzH-7" value="文件柜-副柜2" style="verticalLabelPosition=bottom;sketch=0;aspect=fixed;html=1;verticalAlign=top;strokeColor=none;align=center;outlineConnect=0;shape=mxgraph.citrix.hq_enterprise;" vertex="1" parent="1">
          <mxGeometry x="990" y="515" width="73.18" height="70" as="geometry" />
        </mxCell>
        <mxCell id="wMVqPyCpb7T7B9sVLrzH-9" value="" style="endArrow=none;html=1;rounded=0;" edge="1" parent="1" source="6qK6w1fUxaMm84eF96_b-16" target="wMVqPyCpb7T7B9sVLrzH-4">
          <mxGeometry width="50" height="50" relative="1" as="geometry">
            <mxPoint x="610" y="290" as="sourcePoint" />
            <mxPoint x="660" y="240" as="targetPoint" />
          </mxGeometry>
        </mxCell>
        <mxCell id="wMVqPyCpb7T7B9sVLrzH-10" value="" style="endArrow=none;html=1;rounded=0;" edge="1" parent="1" source="6qK6w1fUxaMm84eF96_b-16" target="wMVqPyCpb7T7B9sVLrzH-6">
          <mxGeometry width="50" height="50" relative="1" as="geometry">
            <mxPoint x="610" y="290" as="sourcePoint" />
            <mxPoint x="660" y="240" as="targetPoint" />
          </mxGeometry>
        </mxCell>
        <mxCell id="wMVqPyCpb7T7B9sVLrzH-11" value="" style="endArrow=none;html=1;rounded=0;" edge="1" parent="1" source="6qK6w1fUxaMm84eF96_b-16" target="wMVqPyCpb7T7B9sVLrzH-7">
          <mxGeometry width="50" height="50" relative="1" as="geometry">
            <mxPoint x="610" y="290" as="sourcePoint" />
            <mxPoint x="660" y="240" as="targetPoint" />
          </mxGeometry>
        </mxCell>
        <mxCell id="wMVqPyCpb7T7B9sVLrzH-13" value="&lt;div&gt;Web服务器&lt;/div&gt;&lt;div&gt;（托管系统前端）&lt;/div&gt;" style="verticalLabelPosition=bottom;sketch=0;aspect=fixed;html=1;verticalAlign=top;strokeColor=none;align=center;outlineConnect=0;shape=mxgraph.citrix.file_server;" vertex="1" parent="1">
          <mxGeometry x="654.25" y="258" width="71" height="97" as="geometry" />
        </mxCell>
      </root>
    </mxGraphModel>
  </diagram>
</mxfile>
